<svg width="47" height="47" viewBox="0 0 47 47" fill="none" xmlns="http://www.w3.org/2000/svg">
<path d="M36.6279 24C42.3471 24.0002 46.9998 28.653 47 34.3721C47 40.0913 42.3471 44.7449 36.6279 44.7451C34.6011 44.7451 32.7078 44.1605 31.1084 43.1514L27.9346 46.3252C27.0344 47.2251 25.5749 47.2253 24.6748 46.3252C23.7747 45.4252 23.7749 43.9656 24.6748 43.0654L27.8486 39.8916C26.8395 38.2922 26.2549 36.3989 26.2549 34.3721C26.2551 28.6529 30.9087 24 36.6279 24ZM39 37.375C39 38.2725 38.2725 39 37.375 39H30.0254C31.4863 41.078 33.9005 42.4395 36.6279 42.4395C41.0762 42.4392 44.6953 38.8203 44.6953 34.3721C44.6951 30.7492 42.2941 27.6766 39 26.6611V37.375ZM8.125 26C8.125 26.8975 8.85254 27.625 9.75 27.625C10.6475 27.625 11.375 26.8975 11.375 26V22.75H17.875C18.7725 22.75 19.5 23.4775 19.5 24.375V37.375C19.5 38.2725 18.7725 39 17.875 39H1.625C0.727537 39 0 38.2725 0 37.375V24.375C0 23.4775 0.727537 22.75 1.625 22.75H8.125V26ZM29.25 24.207C25.929 26.4842 23.7452 30.305 23.7451 34.627C23.7451 36.1636 24.0223 37.6369 24.5273 39H24.375C23.4775 39 22.75 38.2725 22.75 37.375V24.375C22.75 23.4775 23.4775 22.75 24.375 22.75H29.25V24.207ZM17.875 4.0625C17.875 4.95996 18.6025 5.6875 19.5 5.6875C20.3975 5.6875 21.125 4.95996 21.125 4.0625V0H29.25C30.1475 0 30.875 0.727537 30.875 1.625V17.875C30.875 18.7725 30.1475 19.5 29.25 19.5H9.75C8.85254 19.5 8.125 18.7725 8.125 17.875V1.625C8.125 0.727537 8.85254 0 9.75 0H17.875V4.0625Z" fill="url(#paint0_linear_41_2030)"/>
<defs>
<linearGradient id="paint0_linear_41_2030" x1="19.6961" y1="-16.2499" x2="47.9858" y2="-15.579" gradientUnits="userSpaceOnUse">
<stop stop-color="#209D53"/>
<stop offset="1" stop-color="#48C57B"/>
</linearGradient>
</defs>
</svg>
