<svg width="39" height="39" viewBox="0 0 39 39" fill="none" xmlns="http://www.w3.org/2000/svg">
<g clip-path="url(#clip0_41_1732)">
<path d="M8.125 26C8.125 26.8975 8.85254 27.625 9.75 27.625C10.6475 27.625 11.375 26.8975 11.375 26V22.75H17.875C18.7725 22.75 19.5 23.4775 19.5 24.375V37.375C19.5 38.2725 18.7725 39 17.875 39H1.625C0.727537 39 0 38.2725 0 37.375V24.375C0 23.4775 0.727537 22.75 1.625 22.75H8.125V26ZM29.25 26C29.25 26.8975 29.9775 27.625 30.875 27.625C31.7725 27.625 32.5 26.8975 32.5 26V22.75H37.375C38.2725 22.75 39 23.4775 39 24.375V37.375C39 38.2725 38.2725 39 37.375 39H24.375C23.4775 39 22.75 38.2725 22.75 37.375V24.375C22.75 23.4775 23.4775 22.75 24.375 22.75H29.25V26ZM17.875 4.0625C17.875 4.95996 18.6025 5.6875 19.5 5.6875C20.3975 5.6875 21.125 4.95996 21.125 4.0625V0H29.25C30.1475 0 30.875 0.727537 30.875 1.625V17.875C30.875 18.7725 30.1475 19.5 29.25 19.5H9.75C8.85254 19.5 8.125 18.7725 8.125 17.875V1.625C8.125 0.727537 8.85254 0 9.75 0H17.875V4.0625Z" fill="url(#paint0_linear_41_1732)"/>
</g>
<defs>
<linearGradient id="paint0_linear_41_1732" x1="15.6765" y1="-12.675" x2="38.1923" y2="-12.1301" gradientUnits="userSpaceOnUse">
<stop stop-color="#209D53"/>
<stop offset="1" stop-color="#48C57B"/>
</linearGradient>
<clipPath id="clip0_41_1732">
<rect width="39" height="39" fill="white"/>
</clipPath>
</defs>
</svg>
