<svg width="16" height="12" viewBox="0 0 16 12" fill="none" xmlns="http://www.w3.org/2000/svg">
<path d="M15.6485 0.336324C15.542 0.229775 15.4152 0.145187 15.2755 0.0874561C15.1357 0.0297256 14.9858 0 14.8343 0C14.6829 0 14.5329 0.0297256 14.3932 0.0874561C14.2534 0.145187 14.1266 0.229775 14.0201 0.336324L5.55252 8.71504L2.00159 4.93111C1.79262 4.70916 1.50311 4.57845 1.19674 4.56773C0.890371 4.55701 0.592248 4.66715 0.367952 4.87393C0.143655 5.08071 0.0115593 5.36718 0.000723133 5.67033C-0.010113 5.97348 0.101199 6.26848 0.31017 6.49042L5.5 12L15.6485 1.9788C15.7597 1.87219 15.8481 1.74456 15.9085 1.60349C15.9689 1.46241 16 1.31077 16 1.15756C16 1.00436 15.9689 0.852716 15.9085 0.71164C15.8481 0.570565 15.7597 0.442933 15.6485 0.336324Z" fill="#209D53"/>
</svg>
