<svg width="39" height="39" viewBox="0 0 39 39" fill="none" xmlns="http://www.w3.org/2000/svg">
<path fill-rule="evenodd" clip-rule="evenodd" d="M9.75782 7.80005C9.75 8.36008 9.74993 8.93603 9.75 9.51782V21.6809C9.74983 23.326 9.74986 24.9249 9.92774 26.2483C10.1285 27.7413 10.6173 29.4475 12.0342 30.8645C13.4512 32.2816 15.1573 32.771 16.6504 32.9719C17.9735 33.1497 19.5725 33.1498 21.2178 33.1497H27.2686C27.2255 34.0116 27.1054 34.8795 26.7305 35.6663C26.1533 36.8775 25.1771 37.8538 23.9658 38.4309C23.2615 38.7665 22.5362 38.8904 21.8086 38.9465C21.1186 38.9998 20.2819 38.9993 19.3125 38.9993H9.6211C7.89275 38.9993 6.40354 38.9996 5.21094 38.8391C3.93289 38.6673 2.70764 38.28 1.71387 37.2864C0.720051 36.2925 0.332012 35.0665 0.160161 33.7883C-0.000137856 32.5957 -9.27665e-05 31.1065 4.71349e-06 29.3782V17.1038C-7.32768e-05 15.5252 0.000267979 14.1641 0.135747 13.0666C0.28041 11.8952 0.604742 10.7608 1.44825 9.79712C1.61882 9.60225 1.80221 9.41886 1.99708 9.24829C2.96081 8.40471 4.09518 8.07948 5.26661 7.93481C6.75534 7.75102 8.26123 7.79919 9.75782 7.80005ZM25.9326 0.000241108C27.1695 -0.00155282 28.2669 -0.00336411 29.293 0.392819C30.3192 0.789014 31.1312 1.52807 32.0459 2.36059C33.3673 3.56309 34.6906 4.76375 36.0156 5.96216C37.0625 6.90891 37.9923 7.74986 38.4981 8.89184C39.0038 10.0338 39.0012 11.2872 38.999 12.6985C38.9942 15.6583 38.999 18.6185 38.999 21.5784C38.9992 23.307 38.9992 24.7967 38.8389 25.9895C38.6669 27.2676 38.279 28.493 37.2852 29.4866C36.2915 30.4803 35.0662 30.8673 33.7881 31.0393C32.5953 31.1996 31.1056 31.1997 29.377 31.1995H21.3203C19.5919 31.1997 18.1028 31.1996 16.9102 31.0393C15.6321 30.8673 14.4069 30.4802 13.4131 29.4866C12.4194 28.493 12.0313 27.2676 11.8594 25.9895C11.699 24.7967 11.6991 23.307 11.6992 21.5784V9.75024C11.6992 7.96697 11.6951 6.4333 11.8594 5.21118C12.0312 3.93294 12.4193 2.70793 13.4131 1.71411C14.4069 0.720325 15.632 0.332245 16.9102 0.160397C18.1028 9.73873e-05 19.592 0.000143629 21.3203 0.000241108H25.9326Z" fill="url(#paint0_linear_41_2042)"/>
<defs>
<linearGradient id="paint0_linear_41_2042" x1="16.3433" y1="-13.4836" x2="39.8173" y2="-12.9269" gradientUnits="userSpaceOnUse">
<stop stop-color="#209D53"/>
<stop offset="1" stop-color="#48C57B"/>
</linearGradient>
</defs>
</svg>
