<svg width="39" height="39" viewBox="0 0 39 39" fill="none" xmlns="http://www.w3.org/2000/svg">
<g clip-path="url(#clip0_41_1712)">
<path d="M20.0215 0C21.0417 0 22.0006 0.39726 22.7217 1.11914L37.8809 16.2783C38.6027 16.9993 38.9999 17.9592 39 18.9785C39 19.9987 38.6019 20.9586 37.8809 21.6797L21.6787 37.8809C20.9586 38.6019 19.9987 39 18.9785 39C17.9592 39 16.9993 38.6027 16.2783 37.8809L1.11914 22.7217C0.39726 22.0007 0 21.0417 0 20.0215V3.81934C0 1.71349 1.71349 0 3.81934 0H20.0215ZM19.9434 11.0332C19.2406 11.0332 18.6709 11.6029 18.6709 12.3057V27.582C18.6712 28.2846 19.2408 28.8545 19.9434 28.8545C20.646 28.8545 21.2165 28.2846 21.2168 27.582V12.3057C21.2168 11.6029 20.6461 11.0332 19.9434 11.0332ZM15.0049 17.2441C13.5165 15.7559 11.0928 15.7557 9.60449 17.2441C8.88349 17.9651 8.48731 18.9243 8.4873 19.9453C8.4873 20.9663 8.88348 21.9244 9.60352 22.6445C10.3244 23.3655 11.2828 23.7626 12.3037 23.7627H12.3047C13.3249 23.7627 14.2838 23.3656 15.0049 22.6445C16.4933 21.1561 16.4933 18.7334 15.0049 17.2441ZM30.2812 17.2441C28.7929 15.7557 26.3694 15.7559 24.8809 17.2441C24.1598 17.9651 23.7627 18.9242 23.7627 19.9453C23.7627 20.9664 24.1597 21.9243 24.8799 22.6445C25.6008 23.3656 26.5591 23.7627 27.5801 23.7627H27.5811C28.601 23.7626 29.5593 23.3654 30.2803 22.6445C31.7687 21.1562 31.7696 18.7335 30.2812 17.2441ZM12.3057 18.6719C12.6311 18.672 12.9565 18.7965 13.2041 19.0439C13.7006 19.5404 13.7007 20.3482 13.2051 20.8447C12.9649 21.0839 12.646 21.2167 12.3057 21.2168H12.3047C11.965 21.2168 11.6456 21.0848 11.4053 20.8438C11.165 20.6043 11.0333 20.285 11.0332 19.9453C11.0332 19.6047 11.1658 19.2843 11.4053 19.0439C11.6538 18.7962 11.98 18.6719 12.3057 18.6719ZM27.5811 18.6719C27.9065 18.672 28.2318 18.7965 28.4795 19.0439C28.976 19.5404 28.9761 20.3482 28.4805 20.8447C28.2403 21.0839 27.9214 21.2167 27.5811 21.2168H27.5801C27.2404 21.2168 26.921 21.0848 26.6807 20.8438C26.4404 20.6043 26.3087 20.285 26.3086 19.9453C26.3086 19.6047 26.4412 19.2843 26.6807 19.0439C26.9292 18.7962 27.2554 18.6719 27.5811 18.6719ZM8.48633 5.0918C7.57905 5.09191 6.7267 5.44636 6.08789 6.08594C5.44648 6.72651 5.09191 7.57906 5.0918 8.48633C5.0918 9.39297 5.44529 10.2451 6.08594 10.8857C6.72652 11.5271 7.57898 11.8817 8.48633 11.8818C9.39293 11.8818 10.2452 11.5282 10.8867 10.8867C11.5282 10.2453 11.8818 9.393 11.8818 8.48633C11.8817 7.57901 11.5273 6.72657 10.8867 6.08691C10.2453 5.44547 9.393 5.0918 8.48633 5.0918ZM8.4873 7.6377C8.71689 7.6377 8.92458 7.72438 9.08789 7.8877C9.2502 8.04934 9.33588 8.25603 9.33594 8.48633C9.33594 8.71591 9.24931 8.92452 9.08691 9.08691C8.76212 9.41206 8.21158 9.41289 7.8877 9.08691C7.7253 8.92444 7.63867 8.71591 7.63867 8.48633C7.63873 8.25609 7.72373 8.04897 7.8877 7.88574C8.04941 7.72334 8.25688 7.6377 8.4873 7.6377Z" fill="url(#paint0_linear_41_1712)"/>
</g>
<defs>
<linearGradient id="paint0_linear_41_1712" x1="15.6765" y1="-12.675" x2="38.1923" y2="-12.1301" gradientUnits="userSpaceOnUse">
<stop stop-color="#209D53"/>
<stop offset="1" stop-color="#48C57B"/>
</linearGradient>
<clipPath id="clip0_41_1712">
<rect width="39" height="39" fill="white"/>
</clipPath>
</defs>
</svg>
