<svg width="42" height="40" viewBox="0 0 42 40" fill="none" xmlns="http://www.w3.org/2000/svg">
<g clip-path="url(#clip0_41_1721)">
<path fill-rule="evenodd" clip-rule="evenodd" d="M5.57802 4.46766C8.60179 1.46322 12.715 0.200069 16.6542 0.678601L11.289 4.74403C8.93756 6.52554 8.48408 9.8722 10.2772 12.2147C12.0666 14.5522 15.4161 15.0051 17.7626 13.2274L21.411 10.4638H30.4784L38.0761 17.9589C38.1003 17.9887 38.1256 18.0181 38.1532 18.0458L40.6454 20.538C41.8622 21.7551 41.8622 23.7281 40.6454 24.9452C39.4975 26.0931 37.6764 26.1585 36.452 25.1415L36.244 24.9335C36.2029 24.8923 36.1587 24.8553 36.1132 24.8222L33.746 22.454C33.3229 22.0309 32.6369 22.031 32.2138 22.454C31.7906 22.8769 31.7906 23.5631 32.2138 23.9862L34.705 26.4774C34.7951 26.5675 34.8877 26.6539 34.9823 26.7362L35.078 26.8309C35.94 27.6933 35.94 29.0917 35.078 29.954C34.2157 30.8163 32.8171 30.8162 31.955 29.954L31.5888 29.5878C31.1656 29.1648 30.4794 29.1647 30.0565 29.5878C29.8396 29.8046 29.7347 30.0907 29.7401 30.3749C29.7338 30.6601 29.839 30.9472 30.0565 31.1649L30.5399 31.6483C31.3375 32.4459 31.3375 33.7394 30.5399 34.537C29.7425 35.3342 28.4498 35.3341 27.6522 34.537L27.1688 34.0536C27.012 33.8965 26.8187 33.798 26.6161 33.7577C26.2727 33.689 25.9027 33.7873 25.6366 34.0536C25.2137 34.4765 25.2137 35.1627 25.6366 35.5858L26.1102 36.0585C26.9053 36.8729 26.8987 38.1782 26.0917 38.9852C25.293 39.7834 24.0039 39.7993 23.1854 39.0214L20.0839 36.0741L21.2206 34.9442C22.8324 33.3426 22.8324 30.7458 21.2206 29.1444C20.37 28.2991 19.2401 27.8999 18.1259 27.9472C18.1733 26.84 17.7716 25.7174 16.9208 24.872C16.0705 24.0273 14.9416 23.628 13.828 23.6747C13.8753 22.568 13.4734 21.4456 12.6229 20.6005C11.5405 19.5247 10.006 19.1717 8.62685 19.5409C8.5106 18.6815 8.11984 17.8509 7.45497 17.1903C5.96773 15.7125 3.62764 15.5981 2.00868 16.8475C1.00832 12.537 2.198 7.82629 5.57802 4.46766ZM16.9208 30.6718C17.6837 29.9139 18.9206 29.9139 19.6835 30.6718C20.4463 31.4299 20.4463 32.659 19.6835 33.4169L17.5731 35.5136C17.4165 35.6689 17.2399 35.793 17.0517 35.8847C16.3226 36.2398 15.4168 36.1158 14.8104 35.5136C14.2041 34.911 14.0798 34.0106 14.4374 33.286L14.4403 33.2811C14.5323 33.0963 14.6555 32.9223 14.8104 32.7684L16.9208 30.6718ZM12.6503 26.372C13.3195 25.7333 14.3341 25.6601 15.0819 26.1532C15.1887 26.2236 15.2905 26.3057 15.3847 26.3993C16.1476 27.1572 16.1476 28.3863 15.3847 29.1444L13.2743 31.2411C12.5114 31.9992 11.2745 31.9992 10.5116 31.2411C9.75822 30.4925 9.74839 29.2843 10.4833 28.5243L10.5126 28.496L12.6229 26.3993L12.6503 26.372ZM8.32314 22.1268C9.08598 21.3689 10.323 21.3689 11.0858 22.1268C11.8394 22.8754 11.8482 24.0838 11.1132 24.8436L11.0849 24.872L8.97451 26.9696L8.94619 26.997C8.18127 27.7267 6.96611 27.7171 6.21279 26.9686C5.4501 26.2108 5.4501 24.9826 6.21279 24.2245L8.32314 22.1268ZM3.15517 18.7167C3.91798 17.959 5.15503 17.9591 5.91786 18.7167C6.6807 19.4748 6.68061 20.7039 5.91786 21.4618L3.80751 23.5595C3.04469 24.3172 1.8077 24.3172 1.04482 23.5595C0.281935 22.8013 0.281936 21.5722 1.04482 20.8143L3.15517 18.7167ZM28.8573 0.52821C28.8826 0.529405 28.9082 0.530158 28.9335 0.530163H29.0165C30.2623 0.530163 31.4403 0.802799 32.497 1.29091C32.5249 1.30383 32.5533 1.31571 32.5819 1.32704C34.5701 2.11157 36.3445 3.44876 37.6513 5.27626C39.6209 8.03076 40.2356 11.4842 39.3954 14.6972L32.2851 7.68251C31.9811 7.38249 31.5707 7.21376 31.1434 7.21376H20.8632C20.8412 7.21376 20.8188 7.21482 20.7968 7.21571C20.4661 7.22928 20.1464 7.3433 19.8817 7.54383L15.7987 10.6376C15.6838 10.7246 15.5628 10.7983 15.4374 10.8583C14.5586 11.2789 13.4718 11.0416 12.8573 10.2391C12.77 10.1251 12.6959 10.0049 12.6356 9.88075C12.2141 9.01172 12.449 7.94193 13.2499 7.33485L21.8065 0.851452C21.9291 0.758618 22.037 0.650486 22.1268 0.530163H27.6767C27.7024 0.530163 27.728 0.52942 27.7538 0.52821C28.1219 0.510725 28.4905 0.510833 28.8573 0.52821Z" fill="url(#paint0_linear_41_1721)"/>
</g>
<defs>
<linearGradient id="paint0_linear_41_1721" x1="16.9874" y1="-12.1857" x2="40.7056" y2="-11.5822" gradientUnits="userSpaceOnUse">
<stop stop-color="#209D53"/>
<stop offset="1" stop-color="#48C57B"/>
</linearGradient>
<clipPath id="clip0_41_1721">
<rect width="42" height="40" fill="white"/>
</clipPath>
</defs>
</svg>
