<svg width="49" height="49" viewBox="0 0 49 49" fill="none" xmlns="http://www.w3.org/2000/svg">
<rect width="48.4476" height="48.4476" rx="11.8994" fill="#B7B7B7" fill-opacity="0.2"/>
<g clip-path="url(#clip0_41_1797)">
<path fill-rule="evenodd" clip-rule="evenodd" d="M34.1403 14.3039C34.4554 14.1677 34.8002 14.1207 35.1389 14.1678C35.4777 14.215 35.7979 14.3546 36.0663 14.5722C36.3347 14.7897 36.5415 15.0772 36.6651 15.4047C36.7888 15.7323 36.8247 16.0879 36.7692 16.4346L33.8777 34.4611C33.5972 36.1999 31.7409 37.1971 30.1893 36.3309C28.8914 35.6063 26.9637 34.4899 25.2298 33.325C24.3628 32.7419 21.7071 30.8746 22.0335 29.5459C22.314 28.4099 26.7763 24.1407 29.3261 21.6026C30.327 20.6054 29.8705 20.0302 28.6887 20.9474C25.7538 23.2248 21.0416 26.6881 19.4836 27.663C18.1093 28.5226 17.3927 28.6693 16.536 28.5226C14.9729 28.2553 13.5233 27.8412 12.3402 27.3367C10.7414 26.6553 10.8192 24.3963 12.3389 23.7385L34.1403 14.3039Z" fill="#3F3F3F"/>
</g>
<defs>
<clipPath id="clip0_41_1797">
<rect width="31.0234" height="31.0234" fill="white" transform="translate(8.92578 8.49866)"/>
</clipPath>
</defs>
</svg>
