<svg width="49" height="49" viewBox="0 0 49 49" fill="none" xmlns="http://www.w3.org/2000/svg">
<rect width="48.4476" height="48.4476" rx="11.8994" fill="#B7B7B7" fill-opacity="0.2"/>
<path d="M36.4754 33.3487H33.4044C32.243 33.3487 31.8931 32.408 29.8112 30.3248C27.9917 28.5712 27.2232 28.3532 26.763 28.3532C26.1264 28.3532 25.9528 28.5282 25.9528 29.4043V32.1658C25.9528 32.9127 25.7106 33.35 23.7592 33.35C21.8661 33.2229 20.0303 32.6478 18.4031 31.6721C16.7758 30.6964 15.4036 29.3481 14.3994 27.7382C12.0161 24.7703 10.3573 21.2877 9.55469 17.5669C9.55469 17.1066 9.72964 16.6895 10.6071 16.6895H13.6754C14.464 16.6895 14.748 17.0407 15.0575 17.8522C16.5473 22.2367 19.0894 26.0506 20.1216 26.0506C20.5173 26.0506 20.6896 25.8757 20.6896 24.8892V20.3728C20.559 18.3125 19.4649 18.1389 19.4649 17.3933C19.4787 17.1966 19.5687 17.013 19.7157 16.8816C19.8627 16.7502 20.0552 16.6813 20.2522 16.6895H25.0754C25.7348 16.6895 25.9528 17.0178 25.9528 17.8064V23.9028C25.9528 24.5608 26.2355 24.7789 26.4346 24.7789C26.8303 24.7789 27.1344 24.5608 27.8598 23.8368C29.414 21.9402 30.6842 19.8277 31.6306 17.5656C31.727 17.2937 31.91 17.0609 32.1513 16.9029C32.3927 16.7449 32.6792 16.6704 32.967 16.6908H36.0367C36.9572 16.6908 37.1523 17.1511 36.9572 17.8078C35.8404 20.3086 34.4589 22.6826 32.8364 24.8892C32.5054 25.3939 32.3735 25.6563 32.8364 26.2484C33.1406 26.7087 34.2172 27.6077 34.9399 28.4622C35.9923 29.5119 36.8657 30.7258 37.5264 32.0554C37.7902 32.9113 37.3515 33.3487 36.4754 33.3487Z" fill="#3F3F3F"/>
</svg>
