<svg width="49" height="49" viewBox="0 0 49 49" fill="none" xmlns="http://www.w3.org/2000/svg">
<rect width="48.4476" height="48.4476" rx="11.8994" fill="#B7B7B7" fill-opacity="0.2"/>
<path d="M21.4434 28.3949L28.6607 24.223L21.4434 20.0511V28.3949ZM37.519 17.5063C37.6998 18.1599 37.8249 19.036 37.9083 20.1485C38.0057 21.261 38.0474 22.2205 38.0474 23.0549L38.1308 24.223C38.1308 27.2685 37.9083 29.5074 37.519 30.9397C37.1713 32.1913 36.3648 32.9979 35.1132 33.3455C34.4596 33.5263 33.2637 33.6515 31.428 33.7349C29.6202 33.8322 27.9654 33.874 26.4357 33.874L24.2246 33.9574C18.3979 33.9574 14.7684 33.7349 13.336 33.3455C12.0845 32.9979 11.2779 32.1913 10.9302 30.9397C10.7495 30.2861 10.6243 29.4101 10.5409 28.2976C10.4435 27.1851 10.4018 26.2255 10.4018 25.3911L10.3184 24.223C10.3184 21.1776 10.5409 18.9386 10.9302 17.5063C11.2779 16.2547 12.0845 15.4482 13.336 15.1005C13.9896 14.9197 15.1855 14.7946 17.0212 14.7111C18.829 14.6138 20.4838 14.5721 22.0135 14.5721L24.2246 14.4886C30.0513 14.4886 33.6809 14.7111 35.1132 15.1005C36.3648 15.4482 37.1713 16.2547 37.519 17.5063Z" fill="#3F3F3F"/>
</svg>
