<svg width="21" height="21" viewBox="0 0 21 21" fill="none" xmlns="http://www.w3.org/2000/svg">
<path fill-rule="evenodd" clip-rule="evenodd" d="M10.4167 20.8333C5.5062 20.8333 3.05097 20.8333 1.52549 19.3078C-1.24176e-07 17.7824 0 15.3271 0 10.4167C0 5.5062 -1.24176e-07 3.05097 1.52549 1.52549C3.05097 -1.24176e-07 5.5062 0 10.4167 0C15.3271 0 17.7824 -1.24176e-07 19.3078 1.52549C20.8333 3.05097 20.8333 5.5062 20.8333 10.4167C20.8333 15.3271 20.8333 17.7824 19.3078 19.3078C17.7824 20.8333 15.3271 20.8333 10.4167 20.8333ZM10.4167 16.4062C10.8481 16.4062 11.1979 16.0565 11.1979 15.625V9.375C11.1979 8.94354 10.8481 8.59375 10.4167 8.59375C9.98521 8.59375 9.63542 8.94354 9.63542 9.375V15.625C9.63542 16.0565 9.98521 16.4062 10.4167 16.4062ZM10.4167 5.20833C10.992 5.20833 11.4583 5.67471 11.4583 6.25C11.4583 6.82529 10.992 7.29167 10.4167 7.29167C9.84135 7.29167 9.375 6.82529 9.375 6.25C9.375 5.67471 9.84135 5.20833 10.4167 5.20833Z" fill="#B7B7B7"/>
</svg>
